<svg id="Layer_1" data-name="Layer 1" xmlns="http://www.w3.org/2000/svg" viewBox="0 0 500 201.56"><defs><style>.cls-1{fill:#3d3935;}.cls-2{fill:#a4d65e;}</style></defs><path class="cls-1" d="M117.4,113.34h12.43c.08,2,.12,3.28.12,3.86a16.06,16.06,0,0,1-1.4,7.38q-1.56,3-6.07,4.06t-15.6,1.08q-11.65,0-16.6-.45a21.35,21.35,0,0,1-7.45-1.73,7.92,7.92,0,0,1-3.35-3.14A13.89,13.89,0,0,1,78.05,119q-.27-2.77-.27-10,0-7.08.27-10.22a15.55,15.55,0,0,1,1-4.87Q80.8,90,86,88.82t21-1.15q7.89,0,11.48.36a17.93,17.93,0,0,1,5.7,1.35,7.61,7.61,0,0,1,3.92,3.9,19.84,19.84,0,0,1,1.13,7.6c0,.18,0,.86,0,2H116.74a17.87,17.87,0,0,0-.25-2.72,2.21,2.21,0,0,0-.67-1.13c-.48-.42-1.69-.72-3.62-.91s-4.86-.29-8.78-.29-6.58.09-8.07.26a6.29,6.29,0,0,0-3.17,1,5,5,0,0,0-1.54,3,37.26,37.26,0,0,0-.43,6.75,37.18,37.18,0,0,0,.39,6.53,4.34,4.34,0,0,0,1.49,2.73,6.84,6.84,0,0,0,3.33,1.08,80.77,80.77,0,0,0,8.09.27q7.14,0,9.51-.24a5.49,5.49,0,0,0,3.21-1.05c.74-.69,1.13-2.32,1.17-4.87" transform="translate(-4.65 -5.33)"/><polygon class="cls-1" points="128.78 82.98 141.83 82.98 141.83 97.56 169.89 97.56 169.89 82.98 182.95 82.98 182.95 123.76 169.89 123.76 169.89 108.97 141.83 108.97 141.83 123.76 128.78 123.76 128.78 82.98"/><polygon class="cls-1" points="187.92 82.98 233.1 82.98 233.1 92.57 200.17 92.57 200.17 98.45 231.43 98.45 231.43 107.42 200.17 107.42 200.17 113.96 233.34 113.96 233.34 123.76 187.92 123.76 187.92 82.98"/><path class="cls-1" d="M279.93,113.34h12.43c.08,2,.12,3.28.12,3.86a15.92,15.92,0,0,1-1.41,7.38q-1.54,3-6.06,4.06t-15.6,1.08q-11.66,0-16.6-.45a21.29,21.29,0,0,1-7.45-1.73A7.92,7.92,0,0,1,242,124.4a13.72,13.72,0,0,1-1.43-5.41q-.27-2.77-.27-10,0-7.08.27-10.22a15.27,15.27,0,0,1,1-4.87q1.71-3.89,6.9-5t21-1.15q7.89,0,11.47.36a18,18,0,0,1,5.71,1.35,7.65,7.65,0,0,1,3.92,3.9,19.84,19.84,0,0,1,1.13,7.6c0,.18,0,.86,0,2H279.27a17.87,17.87,0,0,0-.25-2.72,2.16,2.16,0,0,0-.68-1.13c-.47-.42-1.68-.72-3.61-.91s-4.86-.29-8.79-.29-6.57.09-8.06.26a6.29,6.29,0,0,0-3.17,1,5,5,0,0,0-1.54,3,37.26,37.26,0,0,0-.43,6.75,37.18,37.18,0,0,0,.39,6.53,4.3,4.3,0,0,0,1.49,2.73,6.84,6.84,0,0,0,3.33,1.08,80.53,80.53,0,0,0,8.08.27c4.76,0,7.94-.08,9.52-.24a5.49,5.49,0,0,0,3.21-1.05c.74-.69,1.13-2.32,1.17-4.87" transform="translate(-4.65 -5.33)"/><polygon class="cls-1" points="291.31 82.98 303.74 82.98 303.74 97.77 310.55 97.77 326.69 82.71 345.69 82.71 322.11 103 347.69 123.76 328.81 123.76 310.55 108.17 303.74 108.17 303.74 123.76 291.31 123.76 291.31 82.98"/><polygon class="cls-1" points="348.6 82.98 393.78 82.98 393.78 92.57 360.85 92.57 360.85 98.45 392.11 98.45 392.11 107.42 360.85 107.42 360.85 113.96 394.02 113.96 394.02 123.76 348.6 123.76 348.6 82.98"/><path class="cls-1" d="M401.82,129.09V88.3h30q10.57,0,12.67.23a9.22,9.22,0,0,1,4,1.39,7.15,7.15,0,0,1,3.2,3.87,25.13,25.13,0,0,1,.87,7.75,27.74,27.74,0,0,1-.56,6.54,6.26,6.26,0,0,1-2.07,3.35,10.27,10.27,0,0,1-5,1.85q3.92.3,5.62,2.24a5.77,5.77,0,0,1,1.25,2.83,54.77,54.77,0,0,1,.27,6.94v3.8H439.92v-2.18a31.75,31.75,0,0,0-.26-4.86,4.38,4.38,0,0,0-.94-2.22,3.19,3.19,0,0,0-1.89-.91,40.21,40.21,0,0,0-5.07-.2H414.25v10.37Zm12.43-20.56h17.48c3-.06,4.87-.11,5.45-.16a3.32,3.32,0,0,0,1.51-.47,2.68,2.68,0,0,0,1.14-1.51,10.29,10.29,0,0,0,.33-3,9,9,0,0,0-.38-3,2.54,2.54,0,0,0-1.3-1.43,4.42,4.42,0,0,0-1.56-.36q-.92-.06-5.22-.09H414.25Z" transform="translate(-4.65 -5.33)"/><path class="cls-1" d="M454.72,115.58h12c0,2,.39,3.31,1.23,3.89a5,5,0,0,0,2.31.67q1.43.1,8.95.16c5.26,0,8.42,0,9.48-.1a7.6,7.6,0,0,0,2.51-.46c.91-.38,1.37-1.41,1.37-3.08a2.67,2.67,0,0,0-1-2.44,8.9,8.9,0,0,0-4-.67q-2.3,0-9.74-.36-7.62-.36-9.92-.42a28.85,28.85,0,0,1-6.89-.85,7.61,7.61,0,0,1-3.75-2.28c-1.53-1.76-2.3-4.68-2.3-8.79q0-6.9,2.63-9.74a10,10,0,0,1,6.15-2.82q4.15-.62,16.89-.62a105.61,105.61,0,0,1,12.64.51Q499,89,501.1,91.3c1.39,1.57,2.09,4.2,2.09,7.91,0,.34,0,1,0,1.91h-12a8.92,8.92,0,0,0-.29-2.33,1.92,1.92,0,0,0-.88-1,7.06,7.06,0,0,0-2.84-.61q-2-.14-8.6-.13-7.92,0-9.65.49t-1.74,2.73a2.37,2.37,0,0,0,1.74,2.63q1.42.39,13.17.75,9.9.3,13.22.7a14.25,14.25,0,0,1,5.31,1.54,7.37,7.37,0,0,1,3.16,3.69,19.07,19.07,0,0,1,.93,6.74c0,3.85-.52,6.7-1.55,8.58a7.38,7.38,0,0,1-3.24,3.07,17.43,17.43,0,0,1-5.84,1.38q-4,.36-15,.36-9.19,0-13.59-.48a18.37,18.37,0,0,1-6.61-1.7A7.13,7.13,0,0,1,455.6,124a18.44,18.44,0,0,1-.88-6.54Z" transform="translate(-4.65 -5.33)"/><path class="cls-2" d="M107,206.76c-3.64.42-6.39-1-8.84-3.54q-6.69-6.91-13.61-13.6c-6.37-6.16-12.85-12.21-19.24-18.35-2.8-2.68-4.69-5.68-4.66-9.9a12.41,12.41,0,0,1,3.6-8.84c2.7-2.88,5.46-5.71,8.37-8.37,5.28-4.82,11.54-4.81,16.84,0,2.8,2.54,5.47,5.23,8,8,5.72,6.12,13.13,5.41,17.53,0a101,101,0,0,1,7.62-7.73c6.36-6.26,12.11-6.26,18.39-.11,1.76,1.71,3.69,3.24,5.57,4.82,3.85,3.21,6.29,7,6.08,12.3a10.54,10.54,0,0,1-3.16,7.49c-4,3.91-8,7.85-11.84,11.87-7,7.2-13.83,14.49-20.8,21.68-2.7,2.79-5.74,5-9.9,4.31" transform="translate(-4.65 -5.33)"/><path class="cls-2" d="M104.54,5.39A9.32,9.32,0,0,1,112.28,8c12.1,11.79,24.29,23.49,36.28,35.39,4.27,4.23,4,10.57-.16,15.08-2.78,3-5.45,6.13-8.35,9-5.85,5.81-13.31,5.1-17.45.45-3.15-3.53-6.92-6.5-10.48-9.65a10.19,10.19,0,0,0-14.22.37c-3.34,3.17-6.71,6.33-9.72,9.78-5,5.77-12.43,4.58-17,.19-3-2.84-5.89-5.72-8.71-8.7-5.54-5.88-4-12.47.18-16.62C73.91,32.07,84.9,20.57,96,9.12,98.36,6.63,101,5,104.54,5.39" transform="translate(-4.65 -5.33)"/><path class="cls-2" d="M72.17,132.39c-.74,2.12-1,4.58-2.32,6.28A83.33,83.33,0,0,1,60.71,149c-6,5.76-12.19,5.51-18.17-.31-10.95-10.65-22-21.23-32.85-31.93C3,110.12,3,104.17,9.56,97.55c4.39-4.43,8.87-8.79,13.21-13.28,6.05-6.26,11.94-12.66,18-18.86a17.44,17.44,0,0,1,5.6-3.88c4.23-1.72,8.32-1.37,11.85,2,2.85,2.71,6,5.12,8.7,8,4.84,5.11,7.17,11.45.71,18.29-2.6,2.75-5.34,5.35-8,8-5.45,5.54-5.51,11.86-.15,17.33,2.88,2.93,5.77,5.86,8.74,8.7a12,12,0,0,1,3.9,8.52" transform="translate(-4.65 -5.33)"/></svg>