<svg id="Layer_1" data-name="Layer 1" xmlns="http://www.w3.org/2000/svg" viewBox="0 0 500 169.86"><defs><style>.cls-1{fill:#d71920;}.cls-2{fill:#fff;}.cls-3{fill:#fd0;}.cls-4{fill:#5c5f62;}.cls-5{fill:#435465;}.cls-6{fill:#425465;}</style></defs><path class="cls-1" d="M381.53,161.17V175.1H322.64V116h19.15v45.16Zm85.14-31.23V116H402.12V175.1h64.55V161.17h-45.4v-8.65h45.4V138.59h-45.4v-8.65Zm-359.91,0V116H42.22V175.1h64.54V161.17H61.37v-8.65h45.39V138.59H61.37v-8.65Zm193.5,6.52v-3c0-9.6-8-17.41-20-17.41H244c-12,0-20,7.81-20,17.41v24.26c0,9.61,8,17.42,20,17.42h36.21c12.42,0,20-7.81,20-17.42V141.34H259.83v13.93h21.28v2.41a3.53,3.53,0,0,1-3.48,3.49h-31a3.54,3.54,0,0,1-3.48-3.49V133.42a3.53,3.53,0,0,1,3.48-3.48h31a3.52,3.52,0,0,1,3.48,3.48v3ZM184.83,164.85h-34.3l-5.25,10.25H123.76L154.06,116h27.25l30.3,59.09H190.09Zm-7.14-13.93-10-20.9-10,20.9Z" transform="translate(-4.27 -5.23)"/><path class="cls-2" d="M244.12,11.8a4.13,4.13,0,0,1,3.12-1.87h48.84a7.06,7.06,0,0,1,5.33,2.53,7.26,7.26,0,0,1,1.89,4.77v9l-17.2.11.22,5.43L266,55.31l34.53,42.87-93.62.37,35.31-43.62L225.87,33.87Z" transform="translate(-4.27 -5.23)"/><path class="cls-3" d="M301.62,15a7.06,7.06,0,0,1,1.12,3.73v7.48h-12L265.83,55.78,254.22,40.65,242,54.13,211.24,15.45l-198.58-1c8,14.06,54.75,20.27,54.75,20.27,6.34,13.95,36.25,17.41,36.25,17.41,17.14,23.78,82.08,21.5,119.86,20l17.91,22,1.95,3h21.78l1.69-2.4.12,0,18.1-22.28c21.3.23,66.21,3,78.3.36,27.32-5.92,41.11-20.43,41.11-20.43,26.16-2.08,37.11-17.74,37.11-17.74,10.32-.9,41.59-5.25,51.5-19.69Z" transform="translate(-4.27 -5.23)"/><path class="cls-4" d="M292.87,52" transform="translate(-4.27 -5.23)"/><path class="cls-5" d="M497.8,7.5c-7.07,1.72-19.35,3.85-37.67,4.18L304.54,11.6a12.41,12.41,0,0,0-1.29-1.48A13.14,13.14,0,0,0,294,6.28H289.2s-.29-1-2.74-1H248.82a10,10,0,0,0-7.68,4.22c-.88,1.12-12.49,15.41-15.21,18.75L212.27,11.58H198.75l0,0-150.36.08c-18.33-.33-30.6-2.46-37.67-4.18L4.27,5.92l3.16,5.87C11,18.48,17.25,24.53,25,28.82c9.9,5.51,22.14,8.3,36.36,8.3h4.07c9,10.7,21.43,16.87,38.48,18.93C115.16,70,132,76.56,157,76.56h63.88L200.22,102H308.15L287.51,76.56h64c24.95,0,41.84-6.52,53.13-20.51,17.05-2.06,29.48-8.23,38.47-18.93h4.08c14.22,0,26.46-2.79,36.36-8.3,7.71-4.29,13.94-10.34,17.53-17l3.15-5.87ZM447.23,31.18H318.67l-4.82,5.94H434.73c-10,9.24-24.15,13.6-44,13.6H302.8l-5,6.12h92.88c1.7,0,3.35,0,5-.09-10,9.31-24.19,13.7-44.14,13.7H286.78l-5,6.11h0l-1.32,1.63,14.06,17.32H213.82l14.33-17.64-1.06-1.31h0l-5-6.11H157c-19.94,0-34.16-4.39-44.13-13.7,1.63.06,3.28.09,5,.09h93.23l-5-6.12H117.84c-19.87,0-34.06-4.36-44-13.6H195.05l-4.83-5.94H61.32C36,31.18,23,21.79,16.82,14.83a202.06,202.06,0,0,0,31.54,2.79l160.73-.08.28.16L243.08,59l11.21-13.52,9.94,12.37,4-5-14-17.32L243,49.05,230.17,33.37c4.26-5.29,13.05-16.22,16.41-20.47a5.9,5.9,0,0,1,3.56-1.57H263.4a9.65,9.65,0,0,0,19,2.28L282,13.5a4.06,4.06,0,0,1-7.8-2.17h11.54a1.66,1.66,0,0,1,1.6,1.05h6.73a7.07,7.07,0,0,1,4.9,2.07,5.79,5.79,0,0,1,1.83,4.07v6.42s-1.66-1.67-5.27-1.67H281.65v22.9L287.87,39l-.09-9.62h19.11V18.51c0-.32,0-.64,0-1l153.33.08a202.09,202.09,0,0,0,31.55-2.79C485.57,21.79,472.56,31.18,447.23,31.18Z" transform="translate(-4.27 -5.23)"/><path class="cls-6" d="M496.8,175.09h-1.23v-6.22h0l-2.44,6.22h-.78l-2.44-6.22h0v6.22H488.6v-7.45h1.9l2.23,5.66,2.19-5.66h1.88v7.45Zm-9.72-6.46h-2.34v6.46h-1.23v-6.46h-2.33v-1h5.9v1" transform="translate(-4.27 -5.23)"/></svg>