<svg id="Layer_1" data-name="Layer 1" xmlns="http://www.w3.org/2000/svg" viewBox="0 0 500 94.63"><defs><style>.cls-1{fill:#333f48;}.cls-2{fill:#a6192e;}</style></defs><path class="cls-1" d="M113.82,73.9h.82A35.38,35.38,0,0,0,122.3,75c2.35,0,5.11-.51,6.74-2.86,1.43-2.14,1.43-4.7,1.43-8.48v-51H150V61.85c0,6.23,0,13.28-4.08,19.2-4.5,6.44-12.67,9.09-21.87,9.09a38.18,38.18,0,0,1-10.21-1.22Zm85,15.63-3.47-9.4c-1.74,6.44-6.84,10.52-15.73,10.52-6.34,0-11.44-2-14.51-6.74-2.76-4.29-2.76-9.4-2.76-16.85V32h19.21v35c0,2.24,0,4,1,5.61s2.86,2.46,5.52,2.46c5.92,0,6.23-4.4,6.23-7.67V32h19.2V89.53ZM262,46.73h-.82s-7.66-2.46-13-2.46c-4,0-5.62,1.43-5.62,3.27,0,3.78,6.85,5.32,12.16,8.38,5.11,2.86,9.7,7.36,9.7,15.83,0,10.94-7.46,18.49-24.72,18.49a50.31,50.31,0,0,1-15.94-2.34V74.41h.82s8.79,2.86,14.81,2.86c4.29,0,6.13-1.43,6.13-3.78C245.58,69,238.33,68,232,64c-4.5-2.86-8.38-7.05-8.38-14.71,0-11.54,8.79-18,23.9-18A53,53,0,0,1,262,33.24ZM309.79,89a49.07,49.07,0,0,1-11.44,1.22c-8.89,0-14.61-2-17.67-6.53-2.76-4.19-2.76-9.3-2.76-14.51V46.73h-8.79V32.63h8.79V20.27l18.9-4.8V32.63h13v14.1h-13v22c0,2,0,4.29,1,5.72s2.76,1.74,5.21,1.74a33.11,33.11,0,0,0,5.92-.62h.82Zm45.45-39a53.13,53.13,0,0,0-6.95-.62c-9.29,0-9.29,5.42-9.29,9.3V89.53H319.79V32H334.4L338.18,43c1.84-9.2,7.36-11.85,15.94-11.85h1.12Zm27.14-33.41c0,6.33-4,9.6-10.73,9.6s-10.73-3.27-10.73-9.6,4-9.6,10.73-9.6S382.38,10.26,382.38,16.59ZM381.05,32V89.53h-18.8V32Zm47.7,57a49,49,0,0,1-11.44,1.22c-8.88,0-14.6-2-17.67-6.53-2.76-4.19-2.76-9.3-2.76-14.51V46.73H388.1V32.63h8.78V20.27l18.9-4.8V32.63h13v14.1h-13v22c0,2,0,4.29,1,5.72s2.76,1.74,5.21,1.74a33.15,33.15,0,0,0,5.93-.62h.81Zm54.13-1a78.12,78.12,0,0,1-18.29,2.24c-10.72,0-17.57-2.55-22.06-7-5.21-5.21-7.36-12.77-7.36-22.27,0-18,7.77-30.45,26.05-30.45,9.81,0,16.75,3.58,20.64,9.4,4.39,6.64,4.39,14.81,4.39,26.26h-32c0,6.84,4,10.82,12.26,10.82,6.75,0,15.63-2.55,15.63-2.55h.72ZM467.55,55c0-7.35-1.22-11.75-6.33-11.75-5.31,0-7.15,4.6-7.15,11.75Z" transform="translate(-3.82 -3.73)"/><path class="cls-2" d="M51.14,3.73A47.32,47.32,0,1,0,98.46,51,47.32,47.32,0,0,0,51.14,3.73Zm-.3,87.17A13.87,13.87,0,0,1,36.91,77c0-10.91,11-17.25,14-32.6,3,15.56,13.93,22.8,13.93,32.58A14,14,0,0,1,50.84,90.9ZM82,76.25A29.92,29.92,0,0,0,85,66c1.67-16.48-4.58-23.13-14.53-31.72A14.92,14.92,0,0,1,66.66,49C68.5,29.53,55.6,23.68,44.35,15.43c.35,13.14-4.84,28.29-13.53,38.14,0,0,1-8.4-3.12-13.16,0,0,0,0,0,0,.09,9.44-11.32,20.91-9.28,33.34A39.88,39.88,0,1,1,82,76.25Z" transform="translate(-3.82 -3.73)"/><path class="cls-1" d="M497.3,77.94a6.4,6.4,0,1,1-6.51,6.39A6.19,6.19,0,0,1,497.3,77.94Zm0,11.61a5.22,5.22,0,1,0-5.15-5.22A4.94,4.94,0,0,0,497.3,89.55Zm-1.18-4.29v2.61h-1.36v-7.2h2.42a3.5,3.5,0,0,1,2.05.44,2,2,0,0,1,.87,1.8,2.18,2.18,0,0,1-1.46,2.14l1.77,2.82h-1.56l-1.49-2.61Zm0-1h1.18c.75,0,1.43-.31,1.43-1.3s-.68-1.3-1.43-1.3h-1.18Z" transform="translate(-3.82 -3.73)"/></svg>