<svg id="Layer_1" data-name="Layer 1" xmlns="http://www.w3.org/2000/svg" viewBox="0 0 500 88.53"><defs><style>.cls-1{fill:none;}.cls-2{fill:#ece715;}.cls-3{fill:#1e355e;}.cls-4{fill:#78787a;fill-rule:evenodd;}</style></defs><path class="cls-1" d="M127.07,34.11c-.1-.16-.2-.33-.3-.47a12.07,12.07,0,0,0-3.84-3.4,9.41,9.41,0,0,0-2.74-1l.08-.05a14.76,14.76,0,0,0-3.55-.34c-4.49.07-8.35,3.46-10.37,8.91l.09,0a30.94,30.94,0,0,0-1.58,9.78,39,39,0,0,0,1.33,9.91,17.44,17.44,0,0,0,3,5.7,10.44,10.44,0,0,0,1.58,1.54l.07,0c.21.16.42.3.64.44a11.6,11.6,0,0,0,5.35,1.55l.33,0h.32a11.57,11.57,0,0,0,6.15-1.74c1.8-1.09,3.29-3,4.57-5.91a30.89,30.89,0,0,0,1.88-11.15v-.1c0-.35,0-.66,0-1-.21-5.49-1.16-9.71-3-12.67Z" transform="translate(-2 -3.51)"/><polygon class="cls-2" points="16.85 88.1 35.46 76.65 35.46 67.08 1.3 88.1 16.85 88.1"/><path class="cls-2" d="M110.82,64.67l-.07,0Z" transform="translate(-2 -3.51)"/><path class="cls-2" d="M109.7,4l1.21-.15Z" transform="translate(-2 -3.51)"/><path class="cls-2" d="M116.81,66.66a11.6,11.6,0,0,1-5.35-1.55A10.77,10.77,0,0,0,116.81,66.66Z" transform="translate(-2 -3.51)"/><path class="cls-2" d="M157.92,28.75l.08.2Z" transform="translate(-2 -3.51)"/><path class="cls-2" d="M130,46.78a36.9,36.9,0,0,0-.37-4.7l26.81-16.49A38.58,38.58,0,0,0,152,18.76L127.07,34.11C128.86,37.07,129.81,41.29,130,46.78Z" transform="translate(-2 -3.51)"/><path class="cls-2" d="M161.37,47.56v-.23c0,.91,0,1.8-.07,2.69C161.34,49.21,161.37,48.38,161.37,47.56Z" transform="translate(-2 -3.51)"/><path class="cls-2" d="M117.29,66.69h0Z" transform="translate(-2 -3.51)"/><path class="cls-2" d="M156.68,26c.21.42.41.85.61,1.28C157.09,26.87,156.88,26.44,156.68,26Z" transform="translate(-2 -3.51)"/><path class="cls-2" d="M130.06,47.83v0Z" transform="translate(-2 -3.51)"/><path class="cls-2" d="M161.14,52.06v0Z" transform="translate(-2 -3.51)"/><polygon class="cls-2" points="35.46 88.1 35.46 85.76 31.64 88.1 35.46 88.1"/><path class="cls-2" d="M106,56.67c.07.25.17.48.24.72a39,39,0,0,1-1.33-9.91c0,.11,0,.2,0,.3L47.41,83.14l5.47,8.47L51.83,90Z" transform="translate(-2 -3.51)"/><path class="cls-2" d="M116.72,28.84a14.76,14.76,0,0,1,3.55.34l26.08-16c-7.8-6.28-18.12-9.62-29.73-9.62a46.46,46.46,0,0,0-5.17.29c.78-.08,1.56-.14,2.36-.18L2,72.43V82L127.7,4.63a48.56,48.56,0,0,1,11,3.67L38.79,69.77l4.42,6.85,63.14-38.87C108.37,32.3,112.23,28.91,116.72,28.84Z" transform="translate(-2 -3.51)"/><rect class="cls-3" x="45.31" y="76" height="7.76" transform="matrix(0.84, -0.54, 0.54, 0.84, -38.07, 33.82)"/><path class="cls-3" d="M106.35,37.75a26.13,26.13,0,0,0-1.49,9.61v.12a30.94,30.94,0,0,1,1.58-9.78Z" transform="translate(-2 -3.51)"/><path class="cls-3" d="M104.86,47.48v-.12a26.13,26.13,0,0,1,1.49-9.61L43.21,76.62l4.2,6.52,57.44-35.36C104.85,47.68,104.86,47.59,104.86,47.48Z" transform="translate(-2 -3.51)"/><path class="cls-3" d="M152,18.76l0,0a36.12,36.12,0,0,0-5.62-5.64l-.08,0A37.66,37.66,0,0,1,152,18.76Z" transform="translate(-2 -3.51)"/><path class="cls-3" d="M122.93,30.24a12.07,12.07,0,0,1,3.84,3.4c.1.14.2.31.3.47h0a10.23,10.23,0,0,0-6.8-4.93l-.08.05A9.41,9.41,0,0,1,122.93,30.24Z" transform="translate(-2 -3.51)"/><path class="cls-3" d="M127.07,34.11,152,18.76a37.66,37.66,0,0,0-5.66-5.63l-26.08,16A10.23,10.23,0,0,1,127.07,34.11Z" transform="translate(-2 -3.51)"/><polygon class="cls-3" points="31.64 88.1 35.46 85.76 35.46 76.65 16.85 88.1 31.64 88.1"/><polygon class="cls-3" points="36.79 66.26 36.79 66.26 35.46 64.2 36.79 66.26"/><path class="cls-3" d="M127.7,4.63,2,82v9.61H3.3l34.16-21V67.71l1.33,2.06L138.66,8.3A48.56,48.56,0,0,0,127.7,4.63Z" transform="translate(-2 -3.51)"/><path class="cls-3" d="M156.47,25.58h0c.07.14.14.29.22.43C156.6,25.88,156.54,25.73,156.47,25.58Z" transform="translate(-2 -3.51)"/><path class="cls-3" d="M161.37,47A47.38,47.38,0,0,0,158,29a49.51,49.51,0,0,1,3.37,18.38Z" transform="translate(-2 -3.51)"/><path class="cls-3" d="M157.29,27.3c.21.48.43,1,.63,1.45C157.72,28.26,157.51,27.78,157.29,27.3Z" transform="translate(-2 -3.51)"/><path class="cls-3" d="M123.61,64.94a11.57,11.57,0,0,1-6.15,1.74c8.08.15,12.81-6.79,12.6-18.8A30.89,30.89,0,0,1,128.18,59C126.9,61.92,125.41,63.85,123.61,64.94Z" transform="translate(-2 -3.51)"/><path class="cls-3" d="M109.17,63.09a17.44,17.44,0,0,1-3-5.7c1,3.5,2.6,5.8,4.56,7.24A10.44,10.44,0,0,1,109.17,63.09Z" transform="translate(-2 -3.51)"/><path class="cls-3" d="M161.3,50c0,.68-.09,1.35-.15,2C161.2,51.37,161.26,50.7,161.3,50Z" transform="translate(-2 -3.51)"/><path class="cls-3" d="M130.06,47.56c0-.27,0-.52,0-.78,0,.34,0,.65,0,1Z" transform="translate(-2 -3.51)"/><path class="cls-3" d="M117,66.68h.11l-.33,0Z" transform="translate(-2 -3.51)"/><path class="cls-3" d="M111.46,65.11c-.22-.14-.43-.28-.64-.44A6.62,6.62,0,0,0,111.46,65.11Z" transform="translate(-2 -3.51)"/><path class="cls-3" d="M158,29l-.08-.2c-.2-.49-.42-1-.63-1.45s-.4-.86-.61-1.28c-.08-.14-.15-.29-.22-.43L129.65,42.08a36.9,36.9,0,0,1,.37,4.7c0,.26,0,.51,0,.78v.32c.21,12-4.52,18.95-12.6,18.8H117l-.22,0a10.77,10.77,0,0,1-5.35-1.55,6.62,6.62,0,0,1-.64-.44l-.07,0c-2-1.44-3.53-3.74-4.56-7.24-.07-.24-.17-.47-.24-.72L51.83,90l1.05,1.63H85.35V79.85a38.7,38.7,0,0,0,6.7,5.34c7,4.55,15.58,6.85,25.54,6.85,9.4,0,17.5-2.12,24.1-6.28A40.11,40.11,0,0,0,156.57,69.4a49.69,49.69,0,0,0,4.57-17.34v0c.06-.67.11-1.34.15-2,0-.89.06-1.78.07-2.69A49.51,49.51,0,0,0,158,29Z" transform="translate(-2 -3.51)"/><path class="cls-3" d="M110.91,3.86l.54-.06Z" transform="translate(-2 -3.51)"/><path class="cls-3" d="M111.45,3.8l-.54.06L109.7,4a47.23,47.23,0,0,0-5.47,1.08,46.17,46.17,0,0,0-11,4.33,35.36,35.36,0,0,0-7.84,6V5.62H50V30.45L34,5.62H2V72.43L113.81,3.62C113,3.66,112.23,3.72,111.45,3.8Z" transform="translate(-2 -3.51)"/><polygon class="cls-4" points="163.8 2.14 238.29 2.14 225.26 24.45 201.36 24.3 164.09 88.1 137.52 88.1 174.94 24.13 151.04 24 163.8 2.14"/><path class="cls-4" d="M191.33,91.61l53.61-86h43c5.93,0,10.63-.2,14.28.5s6.34,1.58,8.09,3a8.53,8.53,0,0,1,3.4,5.22,14.25,14.25,0,0,1-.05,6.65,33.38,33.38,0,0,1-4.09,8.75,50.32,50.32,0,0,1-8.9,10.89,46.63,46.63,0,0,1-10.33,7.24,38.76,38.76,0,0,1-8.64,3c4.26,2.12,6.6,4.45,7,7.09s-1.18,6.81-4.82,12.94l-8.09,13.65c-1.16,2-1.7,3.09-1.58,3.52s.58.77,1.59.89l-1.58,2.55-28.94,0c.67-2.34,2.74-6.33,6.08-12l3.8-6.38q2.73-4.37,2.8-6.81a3.72,3.72,0,0,0-1.7-3.71c-1.27-.85-3.7-1.27-7.36-1.29l-11.07-.06L218.9,91.61Zm58.32-49.2,13.57.08c4.37,0,7.88-.68,10.7-2.21a17.08,17.08,0,0,0,6.47-6.06c1.64-2.62,2.07-4.65,1.22-6.08S278.28,26,274,25.88L260,25.81l-10.37,16.6Z" transform="translate(-2 -3.51)"/><path class="cls-4" d="M354.82,5.65H384l-22.68,86H332.89l3.61-10.85-28.35-.17-10,11h-28ZM353,31.53,324.48,62.87,342.6,63,353,31.53Z" transform="translate(-2 -3.51)"/><polygon class="cls-4" points="387.07 88.1 354.42 88.1 412.38 43.99 410.32 2.14 442.56 2.14 440.87 24.59 467.89 2.14 500 2.14 444.05 44.16 445.5 88.1 413.52 88.1 414.97 64.98 387.07 88.1"/><path class="cls-3" d="M490.94,23.74a11,11,0,0,1,5.27,1.38,9.9,9.9,0,0,1,4,4,10.72,10.72,0,0,1,0,10.7,9.89,9.89,0,0,1-4,4,10.78,10.78,0,0,1-10.66,0,10,10,0,0,1-4-4,10.77,10.77,0,0,1-1.42-5.32,10.88,10.88,0,0,1,1.44-5.38,10,10,0,0,1,4-4A11,11,0,0,1,490.94,23.74Zm0,1.77a9.13,9.13,0,0,0-4.39,1.16A8.27,8.27,0,0,0,483.2,30a9.07,9.07,0,0,0-1.2,4.48,8.94,8.94,0,0,0,1.18,4.43,8.39,8.39,0,0,0,3.32,3.31,8.88,8.88,0,0,0,8.88,0,8.3,8.3,0,0,0,3.31-3.31,8.94,8.94,0,0,0,1.18-4.43,9.07,9.07,0,0,0-1.2-4.48,8.19,8.19,0,0,0-3.34-3.31A9.15,9.15,0,0,0,490.94,25.51Zm-4.7,14.87V28.85h4a9.78,9.78,0,0,1,2.94.32,2.81,2.81,0,0,1,1.45,1.11,3,3,0,0,1,.54,1.69,3.05,3.05,0,0,1-.9,2.2,3.54,3.54,0,0,1-2.4,1,3.18,3.18,0,0,1,1,.62,12.48,12.48,0,0,1,1.71,2.28l1.4,2.26h-2.27l-1-1.82a9.2,9.2,0,0,0-1.95-2.68,2.34,2.34,0,0,0-1.49-.4H488.1v4.9Zm1.86-6.49h2.26a3.62,3.62,0,0,0,2.2-.48,1.67,1.67,0,0,0,.31-2.2,1.66,1.66,0,0,0-.79-.6,5.87,5.87,0,0,0-1.86-.2H488.1Z" transform="translate(-2 -3.51)"/></svg>